<?xml version="1.0" standalone="no"?>
<!DOCTYPE svg PUBLIC "-//W3C//DTD SVG 20010904//EN"
 "http://www.w3.org/TR/2001/REC-SVG-20010904/DTD/svg10.dtd">
<svg version="1.0" xmlns="http://www.w3.org/2000/svg"
 width="256.000000pt" height="256.000000pt" viewBox="0 0 256.000000 256.000000"
 preserveAspectRatio="xMidYMid meet">
<metadata>
Created by potrace 1.16, written by Peter Selinger 2001-2019
</metadata>
<g transform="translate(0.000000,256.000000) scale(0.100000,-0.100000)"
fill="#000000" stroke="none">
<path d="M0 1280 l0 -1280 1280 0 1280 0 0 1280 0 1280 -1280 0 -1280 0 0
-1280z m1416 967 c4 -4 -5 -20 -21 -37 -20 -21 -37 -29 -60 -28 -17 1 -45 -7
-61 -16 -28 -17 -31 -17 -116 19 -49 21 -88 40 -88 44 0 4 21 13 48 19 51 11
287 11 298 -1z m93 -31 c32 -13 87 -43 121 -66 69 -47 69 -45 25 -143 -20 -46
-29 -57 -48 -57 -13 0 -28 -5 -34 -11 -16 -16 -186 129 -179 154 2 10 0 32 -6
48 -9 25 -6 33 19 63 15 19 31 35 36 35 4 1 34 -10 66 -23z m-368 -37 c52 -22
97 -44 100 -47 4 -4 9 -21 12 -39 5 -28 -1 -41 -55 -108 -33 -42 -64 -73 -68
-68 -9 10 -100 274 -100 291 0 18 7 16 111 -29z m-75 -119 l51 -150 -121 0
c-142 0 -196 7 -196 26 0 24 191 273 210 274 3 0 28 -68 56 -150z m748 -100
c43 -66 80 -140 71 -140 -3 0 -38 8 -78 19 -39 10 -84 22 -99 25 -17 4 -28 13
-28 23 0 9 -9 26 -19 37 -19 21 -19 22 12 93 l31 73 34 -33 c19 -17 53 -61 76
-97z m-359 19 c71 -60 84 -75 79 -93 -4 -11 -8 -23 -9 -24 -6 -6 -298 -122
-300 -120 -8 9 -65 129 -65 136 0 5 27 43 60 85 53 66 66 76 98 80 20 2 40 4
45 5 4 1 45 -30 92 -69z m-336 -85 c3 -3 -81 -116 -132 -175 -15 -18 -35 -28
-63 -32 l-42 -5 -46 88 c-39 75 -45 92 -36 112 11 23 12 23 163 20 84 -2 154
-6 156 -8z m-366 -33 c17 -7 40 -38 72 -98 41 -77 46 -91 37 -116 -7 -17 -7
-38 -2 -51 7 -19 -6 -37 -103 -135 -60 -61 -113 -108 -117 -104 -26 30 -45
208 -30 298 20 131 35 168 77 193 45 26 37 24 66 13z m431 -68 c15 -31 25 -57
23 -59 -1 -2 -43 -19 -92 -38 -50 -19 -98 -37 -107 -41 -11 -4 -18 -3 -18 4 0
18 150 202 160 196 5 -3 20 -31 34 -62z m626 32 c71 -18 86 -25 88 -43 3 -19
-149 -395 -169 -416 -10 -11 -14 3 -59 238 l-36 191 25 32 c19 25 31 31 46 26
11 -3 58 -16 105 -28z m-254 -9 c3 -8 -20 -89 -52 -180 -48 -135 -62 -165 -75
-161 -9 3 -22 -1 -29 -10 -7 -8 -18 -15 -24 -15 -10 0 -127 231 -130 256 -1 7
276 122 297 124 4 0 10 -6 13 -14z m64 -18 c0 -2 18 -95 40 -208 22 -113 40
-213 40 -222 0 -29 -17 -29 -67 -2 -123 67 -153 86 -153 95 0 29 117 339 127
339 7 0 13 -1 13 -2z m308 -188 c6 -168 5 -171 -84 -219 -79 -43 -94 -48 -94
-31 0 5 35 93 77 195 53 128 80 182 87 175 6 -6 12 -60 14 -120z m-633 -40
l65 -129 -102 -60 -101 -59 -17 21 c-9 12 -47 66 -84 119 -54 79 -65 102 -60
123 3 14 11 29 18 33 18 12 190 81 203 81 7 1 42 -57 78 -129z m-398 -22 c6
-9 4 -71 -6 -177 -20 -208 -20 -208 -148 -130 -51 32 -89 62 -91 73 -3 13 31
53 109 132 63 63 117 114 120 114 4 0 11 -6 16 -12z m147 -121 c42 -60 76
-113 74 -119 -3 -9 -186 -118 -198 -118 -3 0 -11 4 -19 9 -11 7 -11 31 -2 137
17 184 20 202 39 207 21 5 15 12 106 -116z m342 -128 c-48 -138 -56 -154 -78
-157 -21 -3 -33 10 -84 84 -49 71 -56 88 -44 96 194 115 246 144 253 138 4 -3
-17 -76 -47 -161z m191 86 c132 -72 132 -72 -45 -184 -110 -71 -147 -89 -157
-81 -13 11 -3 45 90 308 6 16 -3 19 112 -43z m333 9 c0 -56 -106 -250 -170
-309 l-32 -30 7 105 c4 58 10 106 14 108 21 9 31 21 34 42 3 16 20 32 60 54
30 17 59 34 63 39 12 12 24 8 24 -9z m-755 -126 c9 -13 36 -51 61 -85 39 -54
44 -65 34 -83 -7 -13 -18 -19 -26 -16 -8 3 -71 17 -142 32 -139 29 -170 40
-154 56 12 12 194 117 204 118 4 0 14 -10 23 -22z m543 3 c11 -6 12 -25 8 -77
-16 -168 -14 -162 -61 -194 l-44 -30 -103 38 c-95 36 -103 41 -103 65 0 23 18
38 140 116 77 49 142 90 145 90 3 0 11 -3 18 -8z m-937 -55 c50 -29 68 -45 75
-70 6 -20 16 -32 30 -34 17 -2 25 -16 38 -61 9 -31 16 -61 16 -65 0 -12 -91
64 -137 114 -42 46 -103 137 -103 153 0 11 3 10 81 -37z m433 -138 c35 -10 51
-19 57 -36 7 -19 -1 -32 -54 -88 l-62 -65 -50 16 c-27 8 -70 26 -95 38 -42 21
-46 27 -68 95 -34 103 -30 106 111 76 61 -13 134 -30 161 -36z m297 -80 c49
-18 89 -36 89 -39 0 -3 -37 -21 -82 -39 -71 -28 -99 -33 -195 -38 -154 -7
-156 -5 -92 68 43 49 56 59 73 53 33 -11 67 -7 84 11 21 21 21 21 123 -16z
m-841 -413 l5 -100 98 -3 c96 -3 97 -3 97 -27 0 -25 0 -25 -104 -25 -95 0
-107 2 -131 23 -26 21 -27 29 -30 122 -1 55 0 104 2 108 3 5 17 7 31 5 27 -3
27 -4 32 -103z m306 45 c26 -33 50 -60 55 -60 4 0 29 27 55 60 38 48 53 60 75
60 16 0 29 -4 29 -8 0 -4 -29 -43 -65 -86 -58 -70 -65 -83 -65 -122 0 -42 -1
-44 -30 -44 -29 0 -30 2 -30 45 0 41 -6 52 -65 123 -36 42 -65 80 -65 85 0 4
13 7 29 7 24 0 38 -11 77 -60z m559 39 c9 -9 19 -35 22 -57 5 -37 2 -45 -25
-70 l-30 -28 35 -42 35 -42 -35 0 c-29 0 -41 7 -69 43 -34 40 -37 42 -89 41
l-54 -1 -3 -42 c-3 -38 -5 -41 -33 -41 l-29 0 0 131 0 131 130 -4 c102 -2 133
-6 145 -19z m321 -15 l27 -35 -20 -21 -21 -20 -18 30 c-10 17 -21 29 -25 26
-4 -2 -32 -49 -61 -104 -51 -96 -54 -100 -86 -100 -18 0 -31 3 -29 8 2 4 26
45 52 92 85 151 92 160 125 160 22 0 36 -9 56 -36z"/>
</g>
</svg>
